<svg xmlns="http://www.w3.org/2000/svg" viewBox="0 0 720 420" role="img" aria-label="Servicio de mandaditos Mande24">
  <defs>
    <linearGradient id="bg" x1="0" y1="0" x2="1" y2="1">
      <stop offset="0%" stop-color="#fff7ed"/>
      <stop offset="100%" stop-color="#ffedd5"/>
    </linearGradient>
  </defs>
  <rect width="720" height="420" fill="url(#bg)"/>
  <rect y="300" width="720" height="120" fill="#fed7aa"/>

  <rect x="48" y="82" width="300" height="190" rx="14" fill="#ffffff" stroke="#f0c6a6"/>
  <text x="74" y="124" font-family="Trebuchet MS, sans-serif" font-size="24" font-weight="700" fill="#9a3412">MANDADITOS 24</text>
  <rect x="74" y="142" width="228" height="18" rx="8" fill="#ffedd5"/>
  <text x="82" y="156" font-family="Trebuchet MS, sans-serif" font-size="12" fill="#7c2d12">Compra urgente | Documento | Olvido</text>
  <rect x="74" y="174" width="190" height="16" rx="8" fill="#fed7aa"/>
  <rect x="74" y="198" width="210" height="16" rx="8" fill="#fed7aa"/>
  <rect x="74" y="222" width="160" height="16" rx="8" fill="#fed7aa"/>

  <rect x="392" y="118" width="250" height="160" rx="20" fill="#ea580c"/>
  <rect x="424" y="154" width="186" height="40" rx="10" fill="#ffedd5"/>
  <text x="442" y="180" font-family="Trebuchet MS, sans-serif" font-size="22" font-weight="700" fill="#9a3412">COMPRA EXPRESS</text>

  <path d="M392 264c34-8 65-30 88-64 24 24 52 41 92 46" fill="none" stroke="#fff7ed" stroke-width="10" stroke-linecap="round"/>
  <circle cx="430" cy="288" r="14" fill="#ffedd5"/>
  <circle cx="562" cy="288" r="14" fill="#ffedd5"/>

  <circle cx="620" cy="86" r="30" fill="#7c2d12"/>
  <text x="620" y="96" text-anchor="middle" font-family="Trebuchet MS, sans-serif" font-size="22" font-weight="700" fill="#fff7ed">24</text>
</svg>
